<svg width="64" height="64" viewBox="0 0 64 64" fill="none" xmlns="http://www.w3.org/2000/svg">
  <!-- Simplified C with chart line -->
  <path d="M 48 12 
           C 54 12, 58 16, 58 22
           L 58 42
           C 58 48, 54 52, 48 52
           L 24 52
           C 18 52, 14 48, 14 42
           L 14 22
           C 14 16, 18 12, 24 12
           L 40 12
           L 40 18
           L 24 18
           C 21 18, 20 19, 20 22
           L 20 42
           C 20 45, 21 46, 24 46
           L 48 46
           C 51 46, 52 45, 52 42
           L 52 22
           C 52 19, 51 18, 48 18
           L 48 12 Z" 
        fill="#3b82f6"/>
  
  <!-- Chart line -->
  <polyline points="24,30 28,26 32,28 36,24 40,26 44,22" 
            stroke="#22c55e" 
            stroke-width="2.5" 
            fill="none" 
            stroke-linecap="round"/>
</svg>
